<?xml version="1.0" standalone="no"?>
<!DOCTYPE svg PUBLIC "-//W3C//DTD SVG 20010904//EN"
 "http://www.w3.org/TR/2001/REC-SVG-20010904/DTD/svg10.dtd">
<svg version="1.0" xmlns="http://www.w3.org/2000/svg"
 width="320.000000pt" height="115.000000pt" viewBox="0 0 320.000000 115.000000"
 preserveAspectRatio="xMidYMid meet">

<g transform="translate(0.000000,115.000000) scale(0.100000,-0.100000)"
fill="#000000" stroke="none">
<path d="M0 575 l0 -575 1600 0 1600 0 0 575 0 575 -1600 0 -1600 0 0 -575z
m384 343 c10 -14 16 -44 16 -80 l0 -58 -50 0 -50 0 0 36 0 35 -47 -3 -48 -3 0
-170 0 -170 48 -3 47 -3 0 35 0 36 50 0 50 0 0 -60 c0 -91 -13 -100 -147 -100
-153 0 -143 -18 -143 263 0 200 2 233 17 249 14 15 32 18 129 18 105 0 114 -1
128 -22z m337 3 c23 -18 24 -26 27 -163 3 -144 3 -145 -23 -177 -29 -34 -29
-37 4 -118 l21 -53 -49 0 -49 0 -28 70 c-23 60 -31 70 -51 70 -24 0 -25 -2
-21 -70 l3 -70 -47 0 -48 0 0 265 0 265 119 0 c102 0 122 -3 142 -19z m361 2
c16 -15 18 -37 18 -265 l0 -248 -45 0 -44 0 -3 73 -3 72 -47 3 -48 3 0 -75 0
-76 -50 0 -51 0 3 251 c3 235 4 252 22 265 30 22 223 20 248 -3z m353 3 c14
-10 20 -30 23 -80 l4 -66 -51 0 -51 0 0 35 0 35 -50 0 -50 0 0 -50 0 -50 90
-45 c49 -25 94 -54 101 -66 6 -13 10 -56 7 -111 -4 -116 -6 -118 -148 -118
-135 0 -142 5 -148 94 l-4 66 51 0 51 0 0 -35 0 -35 50 0 50 0 0 48 0 48 -90
48 c-50 26 -95 57 -101 68 -6 12 -9 57 -7 110 2 75 6 92 22 104 27 19 224 20
251 0z m350 0 c14 -10 20 -30 23 -80 l4 -66 -51 0 -51 0 0 36 0 35 -47 -3 -48
-3 0 -170 0 -170 48 -3 47 -3 0 35 0 36 50 0 50 0 0 -60 c0 -91 -13 -100 -147
-100 -153 0 -143 -18 -143 263 0 200 2 233 17 249 14 15 32 18 123 18 74 0
112 -4 125 -14z m177 -93 l3 -108 48 -3 47 -3 0 110 0 111 50 0 50 0 0 -265 0
-265 -50 0 -50 0 0 111 0 110 -47 -3 -48 -3 -3 -107 -3 -108 -44 0 -45 0 0
265 0 265 45 0 44 0 3 -107z"/>
<path d="M557 844 c-4 -4 -7 -49 -7 -100 0 -99 3 -104 58 -104 49 0 53 9 50
111 l-3 94 -45 3 c-25 2 -49 0 -53 -4z"/>
<path d="M910 751 l0 -101 50 0 51 0 -3 98 -3 97 -47 3 -48 3 0 -100z"/>
</g>
</svg>
